<svg xmlns="http://www.w3.org/2000/svg" fill="none" viewBox="0 0 48 48" id="Mic--Streamline-Ionic-Filled"><desc>Mic Streamline Icon: https://streamlinehq.com</desc><path stroke="currentColor" stroke-linecap="round" stroke-linejoin="round" stroke-width="3" d="M16.7632 45.7107H31.235"></path><path stroke="currentColor" stroke-linecap="round" stroke-linejoin="round" stroke-width="3" d="M38.4739 18.5725v3.6185c0 7.9606 -6.5132 14.4738 -14.4738 14.4738S9.5261 30.1516 9.5261 22.191v-3.6185"></path><path stroke="currentColor" stroke-linecap="round" stroke-linejoin="round" stroke-width="3" d="M24.0002 36.6651v9.0455"></path><path fill="currentColor" d="M24.0014 31.2371c-1.1941 -0.0029 -2.3754 -0.2456 -3.4739 -0.7137 -1.0986 -0.4681 -2.0917 -1.1521 -2.9206 -2.0115 -1.6972 -1.7117 -2.6501 -4.0238 -2.6517 -6.4341V9.5263c-0.0047 -1.1893 0.2262 -2.3678 0.6791 -3.4674 0.453 -1.0996 1.1191 -2.0987 1.9602 -2.9396 0.8409 -0.841 1.8398 -1.5071 2.9394 -1.9601 1.0998 -0.453 2.2781 -0.6838 3.4675 -0.6791 5.0725 0 9.0461 3.9735 9.0461 9.0462v12.5515c0 5.05 -4.0584 9.1593 -9.0461 9.1593Z" stroke-width="1"></path></svg>